<svg width="295" height="141" viewBox="0 0 295 141" fill="none" xmlns="http://www.w3.org/2000/svg">
<path d="M11.1828 119.753H0V140C0 140.552 0.447717 141 1 141H294C294.552 141 295 140.552 295 140V6.65489L282.751 23.3417C282.253 24.0201 281.191 23.8175 280.977 23.0033L275.409 1.74659C275.294 1.30675 274.896 1 274.442 1H258.564C258.284 1 258.017 1.11729 257.828 1.32337L246.939 13.1729C246.639 13.4993 246.16 13.5893 245.762 13.3938L233.119 7.1838C232.559 6.90851 231.886 7.20845 231.716 7.80928L221.803 42.8685C221.577 43.6674 220.533 43.8591 220.038 43.1925L209.649 29.1947C209.199 28.5895 208.268 28.6799 207.943 29.3601L206.498 32.3879C206.223 32.9661 205.482 33.1394 204.978 32.7435L199.706 28.6002C199.216 28.215 198.497 28.3672 198.205 28.918L190.142 44.1257C189.925 44.5357 189.454 44.7423 189.005 44.6247L179.936 42.2488C179.406 42.1099 178.862 42.4241 178.718 42.9531L168.312 81.1203C168.232 81.4123 168.025 81.6526 167.747 81.7737L152.855 88.2759C152.372 88.4868 151.809 88.2867 151.567 87.8187L141.229 67.8191C140.85 67.085 139.794 67.1018 139.438 67.8476L135.078 76.9851C134.969 77.2138 134.777 77.3925 134.542 77.4852L124.559 81.4081C124.279 81.5182 124.063 81.7487 123.972 82.0357L117.981 100.868C117.88 101.185 117.629 101.43 117.311 101.524L103.766 105.516C103.548 105.58 103.359 105.717 103.229 105.902L94.2938 118.671C93.9137 119.214 93.1201 119.243 92.7004 118.73L86.0342 110.58C85.701 110.173 85.109 110.094 84.6802 110.399L63.5547 125.44C63.1991 125.693 62.7204 125.686 62.3721 125.423L55.4776 120.217C55.1153 119.943 54.6141 119.948 54.2571 120.229L47.9397 125.194C47.7635 125.332 47.5459 125.407 47.3217 125.407H33.7145C33.4359 125.407 33.1698 125.291 32.9806 125.087L19.7141 110.75C19.286 110.288 18.5419 110.331 18.1713 110.841L11.9916 119.341C11.8034 119.599 11.5027 119.753 11.1828 119.753Z" fill="url(#paint0_linear_1_200)" fill-opacity="0.24"/>
<path d="M1.75595 119.753H10.6735C11.3135 119.753 11.9148 119.446 12.2912 118.929L17.4554 111.826C18.1967 110.806 19.6849 110.718 20.541 111.644L32.6838 124.766C33.0623 125.175 33.5944 125.407 34.1517 125.407H46.9759C47.4241 125.407 47.8593 125.257 48.2117 124.98L53.3208 120.965C54.1773 120.291 55.415 120.428 56.1047 121.271L61.6445 128.043C62.3618 128.92 63.6636 129.027 64.514 128.278L83.8856 111.227C84.736 110.478 86.0378 110.585 86.7551 111.462L91.8644 117.708C92.7037 118.734 94.291 118.675 95.0511 117.589L103.028 106.189C103.288 105.818 103.667 105.546 104.102 105.417L116.802 101.674C117.439 101.487 117.941 100.995 118.142 100.362L123.827 82.4892C124.01 81.9153 124.441 81.4543 125.002 81.234L134.175 77.6294C134.646 77.444 135.03 77.0866 135.248 76.6292L138.572 69.6641C139.283 68.1725 141.394 68.1388 142.153 69.607L151.137 86.9866C151.621 87.9228 152.748 88.3228 153.714 87.9011L167.309 81.9652C167.863 81.723 168.279 81.2425 168.438 80.6584L178.458 43.9084C178.746 42.8502 179.833 42.2218 180.894 42.4998L188.239 44.424C189.137 44.6592 190.079 44.246 190.513 43.4261L197.644 29.9753C198.228 28.8738 199.667 28.5692 200.647 29.3397L203.996 31.9714C205.003 32.7632 206.485 32.4166 207.037 31.2602L207.228 30.8594C207.877 29.499 209.74 29.3183 210.639 30.5287L218.826 41.5596C219.816 42.8928 221.905 42.5094 222.357 40.9117L231.39 8.96367C231.73 7.76201 233.075 7.16214 234.196 7.71271L245.091 13.0641C245.887 13.4551 246.845 13.2752 247.445 12.6222L257.531 1.64674C257.909 1.23458 258.444 1 259.003 1H273.67C274.579 1 275.374 1.61349 275.605 2.49318L280.35 20.6089C280.792 22.2963 283.032 22.6486 283.971 21.1784L293.244 6.65489" stroke="#6552FE" stroke-width="2" stroke-linecap="round"/>
<defs>
<linearGradient id="paint0_linear_1_200" x1="147.5" y1="1" x2="147.5" y2="141" gradientUnits="userSpaceOnUse">
<stop stop-color="#FEF0EE"/>
<stop offset="1" stop-color="#FEF0EE" stop-opacity="0"/>
</linearGradient>
</defs>
</svg>
